<svg width="48" height="48" viewBox="0 0 48 48" fill="none" xmlns="http://www.w3.org/2000/svg">
<path d="M12 40C11.4333 40 10.9587 39.808 10.576 39.424C10.1933 39.04 10.0013 38.5653 10 38C9.99867 37.4347 10.1907 36.96 10.576 36.576C10.9613 36.192 11.436 36 12 36H13.2L17.15 22.85C17.4167 21.9833 17.9087 21.292 18.626 20.776C19.3433 20.26 20.1347 20.0013 21 20H27C27.8667 20 28.6587 20.2587 29.376 20.776C30.0933 21.2933 30.5847 21.9847 30.85 22.85L34.8 36H36C36.5667 36 37.042 36.192 37.426 36.576C37.81 36.96 38.0013 37.4347 38 38C37.9987 38.5653 37.8067 39.0407 37.424 39.426C37.0413 39.8113 36.5667 40.0027 36 40H12ZM22 14V8.00001C22 7.43334 22.192 6.95867 22.576 6.57601C22.96 6.19334 23.4347 6.00134 24 6.00001C24.5653 5.99867 25.0407 6.19067 25.426 6.57601C25.8113 6.96134 26.0027 7.43601 26 8.00001V14C26 14.5667 25.808 15.042 25.424 15.426C25.04 15.81 24.5653 16.0013 24 16C23.4347 15.9987 22.96 15.8067 22.576 15.424C22.192 15.0413 22 14.5667 22 14ZM32.5 16.7L36.75 12.45C37.1167 12.0833 37.5753 11.8913 38.126 11.874C38.6767 11.8567 39.1513 12.0487 39.55 12.45C39.9167 12.8167 40.1 13.2833 40.1 13.85C40.1 14.4167 39.9167 14.8833 39.55 15.25L35.3 19.55C34.9 19.95 34.4333 20.15 33.9 20.15C33.3667 20.15 32.9 19.95 32.5 19.55C32.1 19.15 31.9 18.6753 31.9 18.126C31.9 17.5767 32.1 17.1013 32.5 16.7ZM38 26H44C44.5667 26 45.042 26.192 45.426 26.576C45.81 26.96 46.0013 27.4347 46 28C45.9987 28.5653 45.8067 29.0407 45.424 29.426C45.0413 29.8113 44.5667 30.0027 44 30H38C37.4333 30 36.9587 29.808 36.576 29.424C36.1933 29.04 36.0013 28.5653 36 28C35.9987 27.4347 36.1907 26.96 36.576 26.576C36.9613 26.192 37.436 26 38 26ZM12.7 19.5L8.45001 15.25C8.08334 14.8833 7.89201 14.4253 7.87601 13.876C7.86001 13.3267 8.05134 12.8513 8.45001 12.45C8.81667 12.0833 9.28334 11.9 9.85001 11.9C10.4167 11.9 10.8833 12.0833 11.25 12.45L15.55 16.7C15.95 17.1 16.15 17.5667 16.15 18.1C16.15 18.6333 15.95 19.1 15.55 19.5C15.15 19.9 14.6753 20.1 14.126 20.1C13.5767 20.1 13.1013 19.9 12.7 19.5ZM4.00001 30C3.43334 30 2.95867 29.808 2.57601 29.424C2.19334 29.04 2.00134 28.5653 2.00001 28C1.99867 27.4347 2.19067 26.96 2.57601 26.576C2.96134 26.192 3.43601 26 4.00001 26H10C10.5667 26 11.042 26.192 11.426 26.576C11.81 26.96 12.0013 27.4347 12 28C11.9987 28.5653 11.8067 29.0407 11.424 29.426C11.0413 29.8113 10.5667 30.0027 10 30H4.00001Z" fill="#E30C00"/>
</svg>
