<svg width="24" height="24" viewBox="0 0 24 24" fill="none" xmlns="http://www.w3.org/2000/svg">
<path d="M3.5 11.9996C3.5 13.0496 3.675 14.0289 4.025 14.9376C4.375 15.8462 4.85834 16.6752 5.475 17.4246C5.60834 17.5912 5.67934 17.7829 5.688 17.9996C5.69667 18.2162 5.62567 18.3996 5.475 18.5496C5.32433 18.6996 5.137 18.7662 4.913 18.7496C4.689 18.7329 4.50133 18.6329 4.35 18.4496C3.6 17.5662 3.021 16.5786 2.613 15.4866C2.205 14.3946 2.00067 13.2322 2 11.9996C1.99933 10.7669 2.20367 9.60424 2.613 8.51157C3.02233 7.4189 3.60133 6.43157 4.35 5.54957C4.5 5.36624 4.68767 5.27057 4.913 5.26257C5.13834 5.25457 5.32567 5.32524 5.475 5.47457C5.62433 5.6239 5.69534 5.80324 5.688 6.01257C5.68067 6.2219 5.60967 6.40924 5.475 6.57457C4.85834 7.32457 4.375 8.1539 4.025 9.06257C3.675 9.97124 3.5 10.9502 3.5 11.9996ZM6.5 11.9996C6.5 12.6329 6.596 13.2289 6.788 13.7876C6.98 14.3462 7.25067 14.8586 7.6 15.3246C7.73333 15.5079 7.8 15.6996 7.8 15.8996C7.8 16.0996 7.725 16.2746 7.575 16.4246C7.425 16.5746 7.25 16.6456 7.05 16.6376C6.85 16.6296 6.68333 16.5419 6.55 16.3746C6.06667 15.7746 5.68767 15.1036 5.413 14.3616C5.13834 13.6196 5.00067 12.8322 5 11.9996C4.99934 11.1669 5.137 10.3792 5.413 9.63657C5.689 8.8939 6.068 8.22324 6.55 7.62457C6.68333 7.4579 6.85 7.37057 7.05 7.36257C7.25 7.35457 7.425 7.42524 7.575 7.57457C7.725 7.7239 7.8 7.8989 7.8 8.09957C7.8 8.30024 7.73333 8.4919 7.6 8.67457C7.25 9.14124 6.97933 9.65357 6.788 10.2116C6.59667 10.7696 6.50067 11.3656 6.5 11.9996ZM11 16.4996C11 16.1162 10.871 15.7372 10.613 15.3626C10.355 14.9879 10.0673 14.5962 9.75 14.1876C9.43267 13.7789 9.14533 13.3536 8.888 12.9116C8.63067 12.4696 8.50133 11.9989 8.5 11.4996C8.5 10.5329 8.84167 9.7079 9.525 9.02457C10.2083 8.34124 11.0333 7.99957 12 7.99957C12.9667 7.99957 13.7917 8.34124 14.475 9.02457C15.1583 9.7079 15.5 10.5329 15.5 11.4996C15.5 11.9996 15.371 12.4706 15.113 12.9126C14.855 13.3546 14.5673 13.7792 14.25 14.1866C13.9327 14.5939 13.6453 14.9859 13.388 15.3626C13.1307 15.7392 13.0013 16.1182 13 16.4996H11ZM11 17.9996V17.4996H13V17.9996C13 18.2829 12.904 18.5206 12.712 18.7126C12.52 18.9046 12.2827 19.0002 12 18.9996C11.7173 18.9989 11.48 18.9029 11.288 18.7116C11.096 18.5202 11 18.2829 11 17.9996ZM17.5 11.9996C17.5 11.3662 17.404 10.7706 17.212 10.2126C17.02 9.65457 16.7493 9.1419 16.4 8.67457C16.2667 8.49124 16.2 8.29957 16.2 8.09957C16.2 7.89957 16.275 7.72457 16.425 7.57457C16.575 7.42457 16.75 7.3539 16.95 7.36257C17.15 7.37124 17.3167 7.45857 17.45 7.62457C17.9333 8.22457 18.3127 8.89557 18.588 9.63757C18.8633 10.3796 19.0007 11.1669 19 11.9996C18.9993 12.8322 18.8617 13.6199 18.587 14.3626C18.3123 15.1052 17.9333 15.7759 17.45 16.3746C17.3167 16.5412 17.15 16.6289 16.95 16.6376C16.75 16.6462 16.575 16.5752 16.425 16.4246C16.275 16.2739 16.2 16.0989 16.2 15.8996C16.2 15.7002 16.2667 15.5086 16.4 15.3246C16.75 14.8579 17.021 14.3456 17.213 13.7876C17.405 13.2296 17.5007 12.6336 17.5 11.9996ZM20.5 11.9996C20.5 10.9496 20.325 9.97057 19.975 9.06257C19.625 8.15457 19.1417 7.32524 18.525 6.57457C18.3917 6.4079 18.321 6.21624 18.313 5.99957C18.305 5.7829 18.3757 5.59957 18.525 5.44957C18.6743 5.29957 18.862 5.2329 19.088 5.24957C19.314 5.26624 19.5013 5.36624 19.65 5.54957C20.4 6.4329 20.9793 7.42057 21.388 8.51257C21.7967 9.60457 22.0007 10.7669 22 11.9996C21.9993 13.2322 21.7953 14.3949 21.388 15.4876C20.9807 16.5802 20.4013 17.5676 19.65 18.4496C19.5 18.6329 19.3127 18.7289 19.088 18.7376C18.8633 18.7462 18.6757 18.6752 18.525 18.5246C18.3743 18.3739 18.3037 18.1949 18.313 17.9876C18.3223 17.7802 18.393 17.5926 18.525 17.4246C19.1417 16.6746 19.625 15.8452 19.975 14.9366C20.325 14.0279 20.5 13.0489 20.5 11.9996Z" fill="#009F22"/>
</svg>
