<svg width="24" height="20" viewBox="0 0 24 20" fill="none" xmlns="http://www.w3.org/2000/svg">
<path d="M21 19.4864C20.9015 19.4866 20.8039 19.4672 20.7129 19.4295C20.622 19.3918 20.5393 19.3364 20.4698 19.2666L2.46984 1.26658C2.33513 1.12478 2.26114 0.93597 2.26364 0.740399C2.26614 0.544827 2.34495 0.357971 2.48325 0.21967C2.62155 0.081369 2.8084 0.00256547 3.00398 6.15386e-05C3.19955 -0.00244239 3.38836 0.0715513 3.53016 0.206266L21.5302 18.2063C21.635 18.3112 21.7064 18.4448 21.7353 18.5902C21.7642 18.7356 21.7493 18.8864 21.6926 19.0234C21.6358 19.1604 21.5398 19.2775 21.4165 19.3599C21.2932 19.4423 21.1483 19.4864 21 19.4864ZM1.815 6.96048C0.627656 8.0433 0 9.52173 0 11.2364C0 12.9239 0.674063 14.4652 1.89797 15.5766C3.07687 16.6472 4.66687 17.2364 6.375 17.2364H15.4125C15.4867 17.2365 15.5593 17.2145 15.621 17.1733C15.6827 17.1321 15.7308 17.0735 15.7592 17.005C15.7876 16.9364 15.7951 16.861 15.7806 16.7882C15.7661 16.7154 15.7303 16.6486 15.6778 16.5961L4.72875 5.64705C4.68065 5.59884 4.62033 5.56465 4.55426 5.54813C4.48819 5.53162 4.41888 5.5334 4.35375 5.5533C3.375 5.85283 2.50313 6.33236 1.815 6.96048ZM22.3402 16.0753C23.4263 15.2105 24 13.9266 24 12.3614C24 9.66283 22.0312 8.11549 19.8956 7.63877C19.7551 7.60676 19.6269 7.53496 19.5261 7.43197C19.4254 7.32897 19.3564 7.19913 19.3275 7.05798C18.9675 5.33861 18.1814 3.86345 17.0222 2.74549C15.673 1.44839 13.8716 0.727773 12 0.736423C10.5413 0.736423 9.18188 1.1583 8.03344 1.95986C7.98796 1.99097 7.94989 2.03173 7.92195 2.07922C7.894 2.12672 7.87687 2.17979 7.87177 2.23466C7.86667 2.28952 7.87372 2.34484 7.89243 2.39668C7.91113 2.44851 7.94103 2.49558 7.98 2.53455L21.6413 16.1958C21.7033 16.2578 21.7851 16.2962 21.8724 16.3041C21.9598 16.3121 22.0472 16.2892 22.1194 16.2394C22.1953 16.1869 22.2689 16.1322 22.3402 16.0753Z" fill="#E30C00"/>
</svg>
